<?xml version="1.0" encoding="UTF-8" standalone="no"?>
<svg
   xmlns:dc="http://purl.org/dc/elements/1.1/"
   xmlns:cc="http://creativecommons.org/ns#"
   xmlns:rdf="http://www.w3.org/1999/02/22-rdf-syntax-ns#"
   xmlns:svg="http://www.w3.org/2000/svg"
   xmlns="http://www.w3.org/2000/svg"
   xmlns:xlink="http://www.w3.org/1999/xlink"
   id="svg2"
   xml:space="preserve"
   viewBox="0 0 18525 9750"
   height="700"
   width="1400"
   version="1.0"><metadata
     id="metadata4"><rdf:RDF><rdf:Description
         dc:language="en"
         dc:format="image/svg+xml"
         dc:date="2006-04-26"
         dc:publisher="Wikimedia Commons"
         dc:description="The flag of the United States:     * 50 stars     * In use since 4 July 1960     * Specifications: United States Executive Order 10834     * Designed by Robert Heft in 1958     * Proportions: 19x10     * Colors:         * Cable No. 70180 Old Glory Red, PMS 193C         * Cable No. 70001 White         * Cable No. 70075 Old Glory Blue, PMS 193C     * License: public domain"
         dc:title="Flag of the United States"
         about="http://commons.wikimedia.org/wiki/Image:Flag_of_the_United_States.svg"><dc:subject><rdf:Bag><rdf:li>flag</rdf:li><rdf:li>united_states</rdf:li></rdf:Bag></dc:subject><dc:creator><rdf:Bag><rdf:li>Daniel McRae</rdf:li><rdf:li>Dbenbenn</rdf:li><rdf:li>Zscout370</rdf:li><rdf:li>Pumbaa80</rdf:li><rdf:li>jacobolus</rdf:li></rdf:Bag></dc:creator></rdf:Description><cc:Work
         rdf:about=""><dc:format>image/svg+xml</dc:format><dc:type
           rdf:resource="http://purl.org/dc/dcmitype/StillImage" /></cc:Work></rdf:RDF></metadata><defs
     id="defs6"><g
       id="cone"><polygon
         transform="matrix(0.9510565,0.309017,-0.309017,0.9510565,0,-1)"
         points="0,0 0,1 0.5,1 0,0 "
         id="triangle" /><use
         height="9750"
         width="18525"
         y="0"
         x="0"
         id="use10"
         transform="scale(-1,1)"
         xlink:href="#triangle" /></g><g
       style="fill:#ffffff"
       transform="matrix(300.3,0,0,300.3,1235,1050)"
       id="star"><use
         height="9750"
         width="18525"
         y="0"
         x="0"
         id="use13"
         xlink:href="#cone" /><use
         height="9750"
         width="18525"
         y="0"
         x="0"
         id="use15"
         transform="matrix(0.309017,0.9510565,-0.9510565,0.309017,0,0)"
         xlink:href="#cone" /><use
         height="9750"
         width="18525"
         y="0"
         x="0"
         id="use17"
         transform="matrix(0.309017,-0.9510565,0.9510565,0.309017,0,0)"
         xlink:href="#cone" /><use
         height="9750"
         width="18525"
         y="0"
         x="0"
         id="use19"
         transform="matrix(-0.809017,0.5877853,-0.5877853,-0.809017,0,0)"
         xlink:href="#cone" /><use
         height="9750"
         width="18525"
         y="0"
         x="0"
         id="use21"
         transform="matrix(-0.809017,-0.5877853,0.5877853,-0.809017,0,0)"
         xlink:href="#cone" /></g><g
       id="even_star_row"><use
         height="9750"
         width="18525"
         y="0"
         x="0"
         xlink:href="#star"
         id="star 1 even row" /><use
         height="9750"
         width="18525"
         y="0"
         x="1235"
         xlink:href="#star"
         id="star 2 even row" /><use
         height="9750"
         width="18525"
         y="0"
         x="2470"
         xlink:href="#star"
         id="star 3 even row" /><use
         height="9750"
         width="18525"
         y="0"
         x="3705"
         xlink:href="#star"
         id="star 4 even row" /><use
         height="9750"
         width="18525"
         y="0"
         x="4940"
         xlink:href="#star"
         id="star 5 even row" /></g><g
       id="odd_star_row"><use
         height="9750"
         width="18525"
         y="-525"
         x="617.5"
         xlink:href="#even_star_row"
         id="last 5 stars odd row" /><use
         height="9750"
         width="18525"
         y="-525"
         x="-617.5"
         xlink:href="#star"
         id="star 1 odd row" /></g></defs><g
     transform="translate(-487.5,0)"
     id="g2262"><rect
       style="fill:#bf0a30"
       y="-3.5527137e-013"
       x="0"
       id="red background"
       height="9750"
       width="19500" /><g
       style="fill:#ffffff"
       id="white stripes"
       transform="scale(1.0526316,1)"><rect
         x="0"
         y="750"
         height="750"
         width="18525"
         id="stripe 2" /><rect
         x="0"
         y="2250"
         height="750"
         width="18525"
         id="stripe 4" /><rect
         x="0"
         y="3750"
         height="750"
         width="18525"
         id="stripe 6" /><rect
         x="0"
         y="5250"
         height="750"
         width="18525"
         id="stripe 8" /><rect
         x="0"
         y="6750"
         height="750"
         width="18525"
         id="stripe 10" /><rect
         x="0"
         y="8250"
         height="750"
         width="18525"
         id="stripe 12" /></g><rect
       style="fill:#002868"
       y="-1.7763568e-013"
       x="0"
       height="5250"
       width="7410"
       id="blue field" /><g
       id="white stars"><g
         id="star_rows_1-2"><use
           height="9750"
           width="18525"
           y="0"
           x="0"
           xlink:href="#odd_star_row"
           id="star_row_1" /><use
           height="9750"
           width="18525"
           y="0"
           x="0"
           xlink:href="#even_star_row"
           id="star_row_2" /></g><use
         height="9750"
         width="18525"
         x="0"
         y="1050"
         xlink:href="#star_rows_1-2"
         id="star rows 3-4" /><use
         height="9750"
         width="18525"
         x="0"
         y="2100"
         xlink:href="#star_rows_1-2"
         id="star rows 5-6" /><use
         height="9750"
         width="18525"
         x="0"
         y="3150"
         xlink:href="#star_rows_1-2"
         id="star rows 7-8" /><use
         height="9750"
         width="18525"
         x="0"
         y="4200"
         xlink:href="#odd_star_row"
         id="star row 9" /></g><path
       style="fill:#ff0000"
       d="M 0,9750 L 19500,9750 L 19500,-3.5527136e-013 L 0,9750 z "
       id="path2203" /><path
       style="fill:#ffffff"
       d="M 14625,2437.4999 L 4874.9999,7312.4998 L 4874.9999,9749.9997 L 14625,9749.9997 L 14625,2437.4999 z "
       id="rect2205" /><path
       style="fill:#ff0000"
       d="M 13252.6,3461.2499 L 12232.332,3685.4128 C 12199.42,3690.616 12170.289,3686.7454 12145.279,3677.1427 L 7327.2989,6086.3503 L 7850.0556,6530.3235 C 7919.5725,6586.7211 7954.8934,6688.2735 7930.1448,6780.1672 L 7776.06,7307.7118 C 8380.7919,7234.8306 8923.295,7169.3967 9528.0131,7096.6069 C 9581.7459,7095.9062 9670.7124,7143.7551 9670.3457,7208.4708 L 9590.2564,9140.6247 L 9884.0622,9140.6247 L 9837.9238,7212.3882 C 9837.5562,7147.6725 9918.2536,7095.9062 9971.9863,7096.6069 C 10576.705,7169.3968 11119.207,7234.8306 11723.939,7307.7118 L 11569.855,6780.1672 C 11545.107,6688.2736 11580.427,6586.7212 11649.944,6530.3235 L 13406.25,5038.6606 L 13042.801,4860.2007 C 12882.77,4800.421 12927.107,4706.4338 12984.475,4479.7766 L 13252.6,3461.2499 z "
       id="maple_leaf" /></g></svg>